<mxfile host="app.diagrams.net" modified="2024-03-12T16:17:12.105Z" agent="Mozilla/5.0 (X11; Linux x86_64; rv:109.0) Gecko/20100101 Firefox/115.0" etag="hZRklxfCoO1czoN53Ju7" version="24.0.5" type="github">
  <diagram id="R2lEEEUBdFMjLlhIrx00" name="Page-1">
    <mxGraphModel dx="3032" dy="1600" grid="1" gridSize="10" guides="1" tooltips="1" connect="1" arrows="1" fold="1" page="1" pageScale="1" pageWidth="850" pageHeight="1100" math="0" shadow="0" extFonts="Permanent Marker^https://fonts.googleapis.com/css?family=Permanent+Marker">
      <root>
        <mxCell id="0" />
        <mxCell id="1" parent="0" />
        <mxCell id="wOHzCfQpH4CLgoGP7HWh-2" value="Films" style="rounded=0;whiteSpace=wrap;html=1;" parent="1" vertex="1">
          <mxGeometry x="-320" y="470" width="120" height="60" as="geometry" />
        </mxCell>
        <mxCell id="wOHzCfQpH4CLgoGP7HWh-3" value="Scène" style="rounded=0;whiteSpace=wrap;html=1;" parent="1" vertex="1">
          <mxGeometry x="-79.5" y="100" width="120" height="60" as="geometry" />
        </mxCell>
        <mxCell id="wOHzCfQpH4CLgoGP7HWh-4" value="Compagnie" style="rounded=0;whiteSpace=wrap;html=1;" parent="1" vertex="1">
          <mxGeometry x="-372" y="180" width="120" height="60" as="geometry" />
        </mxCell>
        <mxCell id="wOHzCfQpH4CLgoGP7HWh-6" value="Pièce de théatre" style="rounded=0;whiteSpace=wrap;html=1;" parent="1" vertex="1">
          <mxGeometry x="140" y="469.5" width="120" height="60" as="geometry" />
        </mxCell>
        <mxCell id="wOHzCfQpH4CLgoGP7HWh-10" value="Artistes" style="rounded=0;whiteSpace=wrap;html=1;" parent="1" vertex="1">
          <mxGeometry x="-312" y="655" width="120" height="60" as="geometry" />
        </mxCell>
        <mxCell id="wOHzCfQpH4CLgoGP7HWh-13" value="Nom" style="text;html=1;align=center;verticalAlign=middle;whiteSpace=wrap;rounded=0;fontSize=8;" parent="1" vertex="1">
          <mxGeometry x="-342" y="615" width="60" height="30" as="geometry" />
        </mxCell>
        <mxCell id="wOHzCfQpH4CLgoGP7HWh-14" value="Prénom" style="text;html=1;align=center;verticalAlign=middle;whiteSpace=wrap;rounded=0;fontSize=8;" parent="1" vertex="1">
          <mxGeometry x="-312" y="615" width="60" height="30" as="geometry" />
        </mxCell>
        <mxCell id="wOHzCfQpH4CLgoGP7HWh-15" value="Adresse" style="text;html=1;align=center;verticalAlign=middle;whiteSpace=wrap;rounded=0;fontSize=8;" parent="1" vertex="1">
          <mxGeometry x="-272" y="615" width="60" height="30" as="geometry" />
        </mxCell>
        <mxCell id="wOHzCfQpH4CLgoGP7HWh-16" value="Rue" style="text;html=1;align=center;verticalAlign=middle;whiteSpace=wrap;rounded=0;fontSize=8;" parent="1" vertex="1">
          <mxGeometry x="-302" y="595" width="60" height="30" as="geometry" />
        </mxCell>
        <mxCell id="wOHzCfQpH4CLgoGP7HWh-18" value="Ville" style="text;html=1;align=center;verticalAlign=middle;whiteSpace=wrap;rounded=0;fontSize=8;" parent="1" vertex="1">
          <mxGeometry x="-282" y="585" width="60" height="30" as="geometry" />
        </mxCell>
        <mxCell id="wOHzCfQpH4CLgoGP7HWh-19" value="Pays" style="text;html=1;align=center;verticalAlign=middle;whiteSpace=wrap;rounded=0;fontSize=8;" parent="1" vertex="1">
          <mxGeometry x="-262" y="595" width="62" height="30" as="geometry" />
        </mxCell>
        <mxCell id="wOHzCfQpH4CLgoGP7HWh-20" value="" style="endArrow=none;html=1;rounded=0;entryX=0;entryY=0.75;entryDx=0;entryDy=0;exitX=0;exitY=0;exitDx=0;exitDy=0;" parent="1" source="wOHzCfQpH4CLgoGP7HWh-10" target="wOHzCfQpH4CLgoGP7HWh-14" edge="1">
          <mxGeometry width="50" height="50" relative="1" as="geometry">
            <mxPoint x="-232" y="725" as="sourcePoint" />
            <mxPoint x="-182" y="675" as="targetPoint" />
          </mxGeometry>
        </mxCell>
        <mxCell id="wOHzCfQpH4CLgoGP7HWh-21" value="" style="endArrow=none;html=1;rounded=0;exitX=0.25;exitY=0;exitDx=0;exitDy=0;entryX=0.5;entryY=0.667;entryDx=0;entryDy=0;entryPerimeter=0;" parent="1" source="wOHzCfQpH4CLgoGP7HWh-10" target="wOHzCfQpH4CLgoGP7HWh-14" edge="1">
          <mxGeometry width="50" height="50" relative="1" as="geometry">
            <mxPoint x="-232" y="725" as="sourcePoint" />
            <mxPoint x="-182" y="675" as="targetPoint" />
          </mxGeometry>
        </mxCell>
        <mxCell id="wOHzCfQpH4CLgoGP7HWh-22" value="" style="endArrow=none;html=1;rounded=0;exitX=0.25;exitY=0;exitDx=0;exitDy=0;entryX=0.5;entryY=0.667;entryDx=0;entryDy=0;entryPerimeter=0;" parent="1" edge="1">
          <mxGeometry width="50" height="50" relative="1" as="geometry">
            <mxPoint x="-242.07999999999993" y="655" as="sourcePoint" />
            <mxPoint x="-242.07999999999993" y="635" as="targetPoint" />
          </mxGeometry>
        </mxCell>
        <mxCell id="wOHzCfQpH4CLgoGP7HWh-23" value="" style="endArrow=none;html=1;rounded=0;exitX=0.165;exitY=0.979;exitDx=0;exitDy=0;entryX=0.5;entryY=0.667;entryDx=0;entryDy=0;entryPerimeter=0;exitPerimeter=0;" parent="1" source="wOHzCfQpH4CLgoGP7HWh-19" edge="1">
          <mxGeometry width="50" height="50" relative="1" as="geometry">
            <mxPoint x="-262.02" y="624.99" as="sourcePoint" />
            <mxPoint x="-272.0899999999999" y="615" as="targetPoint" />
          </mxGeometry>
        </mxCell>
        <mxCell id="wOHzCfQpH4CLgoGP7HWh-24" value="" style="endArrow=none;html=1;rounded=0;exitX=0.303;exitY=1.004;exitDx=0;exitDy=0;exitPerimeter=0;" parent="1" source="wOHzCfQpH4CLgoGP7HWh-19" edge="1">
          <mxGeometry width="50" height="50" relative="1" as="geometry">
            <mxPoint x="-252" y="625" as="sourcePoint" />
            <mxPoint x="-251" y="607" as="targetPoint" />
          </mxGeometry>
        </mxCell>
        <mxCell id="wOHzCfQpH4CLgoGP7HWh-25" value="" style="endArrow=none;html=1;rounded=0;exitX=0.397;exitY=1.011;exitDx=0;exitDy=0;entryX=0.5;entryY=0.667;entryDx=0;entryDy=0;entryPerimeter=0;exitPerimeter=0;" parent="1" source="wOHzCfQpH4CLgoGP7HWh-19" edge="1">
          <mxGeometry width="50" height="50" relative="1" as="geometry">
            <mxPoint x="-222" y="625" as="sourcePoint" />
            <mxPoint x="-232.09000000000003" y="615" as="targetPoint" />
          </mxGeometry>
        </mxCell>
        <mxCell id="wOHzCfQpH4CLgoGP7HWh-26" value="Salaire_min" style="text;html=1;align=center;verticalAlign=middle;whiteSpace=wrap;rounded=0;fontSize=8;" parent="1" vertex="1">
          <mxGeometry x="-384" y="640" width="60" height="30" as="geometry" />
        </mxCell>
        <mxCell id="wOHzCfQpH4CLgoGP7HWh-27" value="" style="endArrow=none;html=1;rounded=0;entryX=0;entryY=0;entryDx=0;entryDy=0;exitX=0;exitY=0.167;exitDx=0;exitDy=0;exitPerimeter=0;" parent="1" source="wOHzCfQpH4CLgoGP7HWh-10" target="wOHzCfQpH4CLgoGP7HWh-10" edge="1">
          <mxGeometry width="50" height="50" relative="1" as="geometry">
            <mxPoint x="-342" y="705" as="sourcePoint" />
            <mxPoint x="-292" y="655" as="targetPoint" />
          </mxGeometry>
        </mxCell>
        <mxCell id="wOHzCfQpH4CLgoGP7HWh-29" value="" style="endArrow=none;html=1;rounded=0;entryX=0;entryY=0;entryDx=0;entryDy=0;" parent="1" target="wOHzCfQpH4CLgoGP7HWh-10" edge="1">
          <mxGeometry width="50" height="50" relative="1" as="geometry">
            <mxPoint x="-332" y="655" as="sourcePoint" />
            <mxPoint x="-292" y="655" as="targetPoint" />
          </mxGeometry>
        </mxCell>
        <mxCell id="wOHzCfQpH4CLgoGP7HWh-33" value="" style="endArrow=none;html=1;rounded=0;entryX=0.915;entryY=0.018;entryDx=0;entryDy=0;entryPerimeter=0;" parent="1" target="wOHzCfQpH4CLgoGP7HWh-10" edge="1">
          <mxGeometry width="50" height="50" relative="1" as="geometry">
            <mxPoint x="-202" y="635" as="sourcePoint" />
            <mxPoint x="-292" y="585" as="targetPoint" />
          </mxGeometry>
        </mxCell>
        <mxCell id="wOHzCfQpH4CLgoGP7HWh-35" value="Âge" style="text;html=1;align=center;verticalAlign=middle;whiteSpace=wrap;rounded=0;fontSize=8;" parent="1" vertex="1">
          <mxGeometry x="-232" y="615" width="60" height="30" as="geometry" />
        </mxCell>
        <mxCell id="6xAQgyJOtl-inS0yBKs7-2" value="Num_appart" style="text;html=1;align=center;verticalAlign=middle;whiteSpace=wrap;rounded=0;fontSize=8;" parent="1" vertex="1">
          <mxGeometry x="-232" y="583" width="60" height="30" as="geometry" />
        </mxCell>
        <mxCell id="6xAQgyJOtl-inS0yBKs7-3" value="" style="endArrow=none;html=1;rounded=0;entryX=0.5;entryY=0.833;entryDx=0;entryDy=0;entryPerimeter=0;exitX=0.5;exitY=1;exitDx=0;exitDy=0;" parent="1" source="wOHzCfQpH4CLgoGP7HWh-19" target="6xAQgyJOtl-inS0yBKs7-2" edge="1">
          <mxGeometry width="50" height="50" relative="1" as="geometry">
            <mxPoint x="-254" y="615" as="sourcePoint" />
            <mxPoint x="-204" y="565" as="targetPoint" />
          </mxGeometry>
        </mxCell>
        <mxCell id="6xAQgyJOtl-inS0yBKs7-34" value="" style="endArrow=none;html=1;rounded=0;exitX=0.166;exitY=0.022;exitDx=0;exitDy=0;entryX=0.5;entryY=1;entryDx=0;entryDy=0;exitPerimeter=0;" parent="1" source="wOHzCfQpH4CLgoGP7HWh-3" target="6xAQgyJOtl-inS0yBKs7-36" edge="1">
          <mxGeometry width="50" height="50" relative="1" as="geometry">
            <mxPoint x="-59" y="100" as="sourcePoint" />
            <mxPoint x="-19" y="60" as="targetPoint" />
          </mxGeometry>
        </mxCell>
        <mxCell id="6xAQgyJOtl-inS0yBKs7-36" value="Type" style="text;html=1;align=center;verticalAlign=middle;whiteSpace=wrap;rounded=0;fontSize=8;" parent="1" vertex="1">
          <mxGeometry x="-89.5" y="44" width="60" height="30" as="geometry" />
        </mxCell>
        <mxCell id="6xAQgyJOtl-inS0yBKs7-37" value="Budget" style="text;html=1;align=center;verticalAlign=middle;whiteSpace=wrap;rounded=0;fontSize=8;" parent="1" vertex="1">
          <mxGeometry x="-55" y="44" width="60" height="30" as="geometry" />
        </mxCell>
        <mxCell id="6xAQgyJOtl-inS0yBKs7-38" value="" style="endArrow=none;html=1;rounded=0;" parent="1" edge="1">
          <mxGeometry width="50" height="50" relative="1" as="geometry">
            <mxPoint x="11" y="100" as="sourcePoint" />
            <mxPoint x="10.739999999999974" y="70" as="targetPoint" />
          </mxGeometry>
        </mxCell>
        <mxCell id="6xAQgyJOtl-inS0yBKs7-39" value="" style="endArrow=none;html=1;rounded=0;exitX=0.449;exitY=0.013;exitDx=0;exitDy=0;exitPerimeter=0;" parent="1" source="wOHzCfQpH4CLgoGP7HWh-3" edge="1">
          <mxGeometry width="50" height="50" relative="1" as="geometry">
            <mxPoint x="-25" y="104" as="sourcePoint" />
            <mxPoint x="-25" y="64" as="targetPoint" />
          </mxGeometry>
        </mxCell>
        <mxCell id="6xAQgyJOtl-inS0yBKs7-41" value="Nom" style="text;html=1;align=center;verticalAlign=middle;whiteSpace=wrap;rounded=0;fontSize=8;" parent="1" vertex="1">
          <mxGeometry x="-19" y="44" width="60" height="30" as="geometry" />
        </mxCell>
        <mxCell id="6xAQgyJOtl-inS0yBKs7-60" value="Théatre" style="text;strokeColor=none;fillColor=none;align=center;verticalAlign=middle;spacingLeft=4;spacingRight=4;overflow=hidden;points=[[0,0.5],[1,0.5]];portConstraint=eastwest;rotatable=0;whiteSpace=wrap;html=1;fontSize=8;" parent="1" vertex="1">
          <mxGeometry x="256.75" y="469.5" width="90" height="30" as="geometry" />
        </mxCell>
        <mxCell id="6xAQgyJOtl-inS0yBKs7-68" value="" style="endArrow=none;html=1;rounded=0;exitX=1;exitY=0.5;exitDx=0;exitDy=0;entryX=0.333;entryY=0.667;entryDx=0;entryDy=0;entryPerimeter=0;" parent="1" source="wOHzCfQpH4CLgoGP7HWh-6" target="6xAQgyJOtl-inS0yBKs7-60" edge="1">
          <mxGeometry width="50" height="50" relative="1" as="geometry">
            <mxPoint x="256.25" y="574.3299999999999" as="sourcePoint" />
            <mxPoint x="266.25" y="554.67" as="targetPoint" />
          </mxGeometry>
        </mxCell>
        <mxCell id="6xAQgyJOtl-inS0yBKs7-69" value="Casting" style="rounded=0;whiteSpace=wrap;html=1;" parent="1" vertex="1">
          <mxGeometry x="140" y="716" width="120" height="60" as="geometry" />
        </mxCell>
        <mxCell id="6xAQgyJOtl-inS0yBKs7-70" value="Objectif" style="text;strokeColor=none;fillColor=none;align=center;verticalAlign=middle;spacingLeft=4;spacingRight=4;overflow=hidden;points=[[0,0.5],[1,0.5]];portConstraint=eastwest;rotatable=0;whiteSpace=wrap;html=1;fontSize=8;" parent="1" vertex="1">
          <mxGeometry x="296" y="716" width="44" height="30" as="geometry" />
        </mxCell>
        <mxCell id="6xAQgyJOtl-inS0yBKs7-71" value="Thème" style="text;strokeColor=none;fillColor=none;align=center;verticalAlign=middle;spacingLeft=4;spacingRight=4;overflow=hidden;points=[[0,0.5],[1,0.5]];portConstraint=eastwest;rotatable=0;whiteSpace=wrap;html=1;fontSize=8;" parent="1" vertex="1">
          <mxGeometry x="296" y="746" width="34" height="30" as="geometry" />
        </mxCell>
        <mxCell id="6xAQgyJOtl-inS0yBKs7-72" value="" style="endArrow=none;html=1;rounded=0;exitX=1;exitY=0.25;exitDx=0;exitDy=0;entryX=0;entryY=0.5;entryDx=0;entryDy=0;" parent="1" source="6xAQgyJOtl-inS0yBKs7-69" edge="1" target="6xAQgyJOtl-inS0yBKs7-70">
          <mxGeometry width="50" height="50" relative="1" as="geometry">
            <mxPoint x="136" y="437" as="sourcePoint" />
            <mxPoint x="166" y="342" as="targetPoint" />
          </mxGeometry>
        </mxCell>
        <mxCell id="6xAQgyJOtl-inS0yBKs7-74" value="" style="endArrow=none;html=1;rounded=0;exitX=1;exitY=0.75;exitDx=0;exitDy=0;" parent="1" edge="1" target="6xAQgyJOtl-inS0yBKs7-71" source="6xAQgyJOtl-inS0yBKs7-69">
          <mxGeometry width="50" height="50" relative="1" as="geometry">
            <mxPoint x="290" y="756" as="sourcePoint" />
            <mxPoint x="280" y="757" as="targetPoint" />
          </mxGeometry>
        </mxCell>
        <mxCell id="6xAQgyJOtl-inS0yBKs7-75" value="nom" style="text;strokeColor=none;fillColor=none;align=center;verticalAlign=middle;spacingLeft=4;spacingRight=4;overflow=hidden;points=[[0,0.5],[1,0.5]];portConstraint=eastwest;rotatable=0;whiteSpace=wrap;html=1;fontSize=8;" parent="1" vertex="1">
          <mxGeometry x="-425" y="175" width="58" height="30" as="geometry" />
        </mxCell>
        <mxCell id="6xAQgyJOtl-inS0yBKs7-76" value="type_industrie" style="text;strokeColor=none;fillColor=none;align=center;verticalAlign=middle;spacingLeft=4;spacingRight=4;overflow=hidden;points=[[0,0.5],[1,0.5]];portConstraint=eastwest;rotatable=0;whiteSpace=wrap;html=1;fontSize=8;" parent="1" vertex="1">
          <mxGeometry x="-442" y="199" width="60" height="30" as="geometry" />
        </mxCell>
        <mxCell id="6xAQgyJOtl-inS0yBKs7-79" value="Ville" style="text;html=1;align=center;verticalAlign=middle;whiteSpace=wrap;rounded=0;fontSize=8;" parent="1" vertex="1">
          <mxGeometry x="-440" y="125" width="60" height="30" as="geometry" />
        </mxCell>
        <mxCell id="6xAQgyJOtl-inS0yBKs7-80" value="Num_appart" style="text;html=1;align=center;verticalAlign=middle;whiteSpace=wrap;rounded=0;fontSize=8;" parent="1" vertex="1">
          <mxGeometry x="-400" y="110" width="60" height="30" as="geometry" />
        </mxCell>
        <mxCell id="6xAQgyJOtl-inS0yBKs7-81" value="Rue" style="text;html=1;align=center;verticalAlign=middle;whiteSpace=wrap;rounded=0;fontSize=8;" parent="1" vertex="1">
          <mxGeometry x="-460" y="125" width="60" height="30" as="geometry" />
        </mxCell>
        <mxCell id="6xAQgyJOtl-inS0yBKs7-82" value="Pays" style="text;html=1;align=center;verticalAlign=middle;whiteSpace=wrap;rounded=0;fontSize=8;" parent="1" vertex="1">
          <mxGeometry x="-420" y="125" width="60" height="30" as="geometry" />
        </mxCell>
        <mxCell id="6xAQgyJOtl-inS0yBKs7-83" value="" style="endArrow=none;html=1;rounded=0;entryX=0.5;entryY=0.833;entryDx=0;entryDy=0;entryPerimeter=0;exitX=0.5;exitY=1;exitDx=0;exitDy=0;" parent="1" source="6xAQgyJOtl-inS0yBKs7-82" target="6xAQgyJOtl-inS0yBKs7-80" edge="1">
          <mxGeometry width="50" height="50" relative="1" as="geometry">
            <mxPoint x="-412" y="145" as="sourcePoint" />
            <mxPoint x="-362" y="95" as="targetPoint" />
          </mxGeometry>
        </mxCell>
        <mxCell id="6xAQgyJOtl-inS0yBKs7-84" value="" style="endArrow=none;html=1;rounded=0;exitX=0.397;exitY=1.011;exitDx=0;exitDy=0;entryX=0.5;entryY=0.667;entryDx=0;entryDy=0;entryPerimeter=0;exitPerimeter=0;" parent="1" source="6xAQgyJOtl-inS0yBKs7-82" edge="1">
          <mxGeometry width="50" height="50" relative="1" as="geometry">
            <mxPoint x="-380" y="155" as="sourcePoint" />
            <mxPoint x="-390.09000000000003" y="145" as="targetPoint" />
          </mxGeometry>
        </mxCell>
        <mxCell id="6xAQgyJOtl-inS0yBKs7-85" value="" style="endArrow=none;html=1;rounded=0;exitX=0.303;exitY=1.004;exitDx=0;exitDy=0;exitPerimeter=0;" parent="1" source="6xAQgyJOtl-inS0yBKs7-82" edge="1">
          <mxGeometry width="50" height="50" relative="1" as="geometry">
            <mxPoint x="-410" y="155" as="sourcePoint" />
            <mxPoint x="-410" y="145" as="targetPoint" />
          </mxGeometry>
        </mxCell>
        <mxCell id="6xAQgyJOtl-inS0yBKs7-86" value="" style="endArrow=none;html=1;rounded=0;exitX=0.165;exitY=0.979;exitDx=0;exitDy=0;entryX=0.5;entryY=0.667;entryDx=0;entryDy=0;entryPerimeter=0;exitPerimeter=0;" parent="1" source="6xAQgyJOtl-inS0yBKs7-82" edge="1">
          <mxGeometry width="50" height="50" relative="1" as="geometry">
            <mxPoint x="-420.02" y="154.99" as="sourcePoint" />
            <mxPoint x="-430.0899999999999" y="145" as="targetPoint" />
          </mxGeometry>
        </mxCell>
        <mxCell id="6xAQgyJOtl-inS0yBKs7-87" value="" style="endArrow=none;html=1;rounded=0;exitX=0;exitY=0;exitDx=0;exitDy=0;entryX=0.5;entryY=0.667;entryDx=0;entryDy=0;entryPerimeter=0;" parent="1" source="wOHzCfQpH4CLgoGP7HWh-4" edge="1">
          <mxGeometry width="50" height="50" relative="1" as="geometry">
            <mxPoint x="-400.0799999999999" y="185" as="sourcePoint" />
            <mxPoint x="-400.0799999999999" y="165" as="targetPoint" />
          </mxGeometry>
        </mxCell>
        <mxCell id="6xAQgyJOtl-inS0yBKs7-88" value="Adresse" style="text;html=1;align=center;verticalAlign=middle;whiteSpace=wrap;rounded=0;fontSize=8;" parent="1" vertex="1">
          <mxGeometry x="-430" y="145" width="60" height="30" as="geometry" />
        </mxCell>
        <mxCell id="6xAQgyJOtl-inS0yBKs7-89" value="" style="endArrow=none;html=1;rounded=0;entryX=0.004;entryY=0.186;entryDx=0;entryDy=0;entryPerimeter=0;exitX=0.655;exitY=0.539;exitDx=0;exitDy=0;exitPerimeter=0;" parent="1" source="6xAQgyJOtl-inS0yBKs7-75" target="wOHzCfQpH4CLgoGP7HWh-4" edge="1">
          <mxGeometry width="50" height="50" relative="1" as="geometry">
            <mxPoint x="-404" y="225" as="sourcePoint" />
            <mxPoint x="-354" y="175" as="targetPoint" />
          </mxGeometry>
        </mxCell>
        <mxCell id="6xAQgyJOtl-inS0yBKs7-90" value="" style="endArrow=none;html=1;rounded=0;entryX=0.004;entryY=0.569;entryDx=0;entryDy=0;entryPerimeter=0;" parent="1" target="wOHzCfQpH4CLgoGP7HWh-4" edge="1">
          <mxGeometry width="50" height="50" relative="1" as="geometry">
            <mxPoint x="-385" y="214" as="sourcePoint" />
            <mxPoint x="-374" y="214" as="targetPoint" />
          </mxGeometry>
        </mxCell>
        <mxCell id="6xAQgyJOtl-inS0yBKs7-98" value="montant" style="text;strokeColor=none;fillColor=none;align=center;verticalAlign=middle;spacingLeft=4;spacingRight=4;overflow=hidden;points=[[0,0.5],[1,0.5]];portConstraint=eastwest;rotatable=0;whiteSpace=wrap;html=1;fontSize=8;" parent="1" vertex="1">
          <mxGeometry x="-162" y="244.5" width="60" height="30" as="geometry" />
        </mxCell>
        <mxCell id="6xAQgyJOtl-inS0yBKs7-116" value="Pièce de théatre&lt;div&gt;/&lt;/div&gt;&lt;div&gt;Films&lt;/div&gt;" style="rounded=0;whiteSpace=wrap;html=1;" parent="1" vertex="1">
          <mxGeometry x="-79.5" y="469.5" width="120" height="60" as="geometry" />
        </mxCell>
        <mxCell id="6xAQgyJOtl-inS0yBKs7-117" value="Titre" style="text;strokeColor=none;fillColor=none;align=center;verticalAlign=middle;spacingLeft=4;spacingRight=4;overflow=hidden;points=[[0,0.5],[1,0.5]];portConstraint=eastwest;rotatable=0;whiteSpace=wrap;html=1;fontSize=8;" parent="1" vertex="1">
          <mxGeometry x="-99" y="427" width="27.5" height="30" as="geometry" />
        </mxCell>
        <mxCell id="6xAQgyJOtl-inS0yBKs7-118" value="Budget" style="text;strokeColor=none;fillColor=none;align=center;verticalAlign=middle;spacingLeft=4;spacingRight=4;overflow=hidden;points=[[0,0.5],[1,0.5]];portConstraint=eastwest;rotatable=0;whiteSpace=wrap;html=1;fontSize=8;" parent="1" vertex="1">
          <mxGeometry x="-102" y="407" width="45.5" height="30" as="geometry" />
        </mxCell>
        <mxCell id="6xAQgyJOtl-inS0yBKs7-119" value="Origine" style="text;strokeColor=none;fillColor=none;align=center;verticalAlign=middle;spacingLeft=4;spacingRight=4;overflow=hidden;points=[[0,0.5],[1,0.5]];portConstraint=eastwest;rotatable=0;whiteSpace=wrap;html=1;fontSize=8;" parent="1" vertex="1">
          <mxGeometry x="-80" y="392" width="40.5" height="30" as="geometry" />
        </mxCell>
        <mxCell id="6xAQgyJOtl-inS0yBKs7-120" value="Langue" style="text;strokeColor=none;fillColor=none;align=center;verticalAlign=middle;spacingLeft=4;spacingRight=4;overflow=hidden;points=[[0,0.5],[1,0.5]];portConstraint=eastwest;rotatable=0;whiteSpace=wrap;html=1;fontSize=8;" parent="1" vertex="1">
          <mxGeometry x="-59" y="405" width="44.5" height="30" as="geometry" />
        </mxCell>
        <mxCell id="6xAQgyJOtl-inS0yBKs7-121" value="Durée" style="text;strokeColor=none;fillColor=none;align=center;verticalAlign=middle;spacingLeft=4;spacingRight=4;overflow=hidden;points=[[0,0.5],[1,0.5]];portConstraint=eastwest;rotatable=0;whiteSpace=wrap;html=1;fontSize=8;" parent="1" vertex="1">
          <mxGeometry x="10" y="411" width="37.5" height="30" as="geometry" />
        </mxCell>
        <mxCell id="6xAQgyJOtl-inS0yBKs7-127" value="Date_sortie" style="text;strokeColor=none;fillColor=none;align=center;verticalAlign=middle;spacingLeft=4;spacingRight=4;overflow=hidden;points=[[0,0.5],[1,0.5]];portConstraint=eastwest;rotatable=0;whiteSpace=wrap;html=1;fontSize=8;" parent="1" vertex="1">
          <mxGeometry x="20" y="427" width="58" height="30" as="geometry" />
        </mxCell>
        <mxCell id="6xAQgyJOtl-inS0yBKs7-129" value="" style="endArrow=none;html=1;rounded=0;exitX=0.75;exitY=0;exitDx=0;exitDy=0;" parent="1" source="6xAQgyJOtl-inS0yBKs7-116" edge="1">
          <mxGeometry width="50" height="50" relative="1" as="geometry">
            <mxPoint y="469.5" as="sourcePoint" />
            <mxPoint x="24" y="432" as="targetPoint" />
          </mxGeometry>
        </mxCell>
        <mxCell id="6xAQgyJOtl-inS0yBKs7-130" value="" style="endArrow=none;html=1;rounded=0;exitX=0.5;exitY=0;exitDx=0;exitDy=0;" parent="1" edge="1">
          <mxGeometry width="50" height="50" relative="1" as="geometry">
            <mxPoint x="23" y="469.5" as="sourcePoint" />
            <mxPoint x="47" y="451" as="targetPoint" />
          </mxGeometry>
        </mxCell>
        <mxCell id="6xAQgyJOtl-inS0yBKs7-131" value="" style="endArrow=none;html=1;rounded=0;exitX=0.396;exitY=0.012;exitDx=0;exitDy=0;exitPerimeter=0;" parent="1" source="6xAQgyJOtl-inS0yBKs7-116" edge="1">
          <mxGeometry width="50" height="50" relative="1" as="geometry">
            <mxPoint x="-64.5" y="469.5" as="sourcePoint" />
            <mxPoint x="-31" y="425" as="targetPoint" />
          </mxGeometry>
        </mxCell>
        <mxCell id="6xAQgyJOtl-inS0yBKs7-132" value="" style="endArrow=none;html=1;rounded=0;exitX=0.25;exitY=0;exitDx=0;exitDy=0;" parent="1" source="6xAQgyJOtl-inS0yBKs7-116" edge="1">
          <mxGeometry width="50" height="50" relative="1" as="geometry">
            <mxPoint x="-100.5" y="469.5" as="sourcePoint" />
            <mxPoint x="-68" y="429" as="targetPoint" />
          </mxGeometry>
        </mxCell>
        <mxCell id="6xAQgyJOtl-inS0yBKs7-133" value="" style="endArrow=none;html=1;rounded=0;exitX=0.156;exitY=0.001;exitDx=0;exitDy=0;exitPerimeter=0;" parent="1" source="6xAQgyJOtl-inS0yBKs7-116" edge="1">
          <mxGeometry width="50" height="50" relative="1" as="geometry">
            <mxPoint x="-129" y="469.5" as="sourcePoint" />
            <mxPoint x="-78" y="447" as="targetPoint" />
          </mxGeometry>
        </mxCell>
        <mxCell id="6xAQgyJOtl-inS0yBKs7-134" value="Domaine" style="text;html=1;align=center;verticalAlign=middle;whiteSpace=wrap;rounded=0;fontSize=8;" parent="1" vertex="1">
          <mxGeometry x="-372" y="610" width="60" height="30" as="geometry" />
        </mxCell>
        <mxCell id="6xAQgyJOtl-inS0yBKs7-136" value="" style="endArrow=none;html=1;rounded=0;exitX=0;exitY=0;exitDx=0;exitDy=0;" parent="1" edge="1" source="wOHzCfQpH4CLgoGP7HWh-10">
          <mxGeometry width="50" height="50" relative="1" as="geometry">
            <mxPoint x="-324.6" y="729.85" as="sourcePoint" />
            <mxPoint x="-343" y="633" as="targetPoint" />
          </mxGeometry>
        </mxCell>
        <mxCell id="6xAQgyJOtl-inS0yBKs7-139" value="" style="endArrow=classic;html=1;rounded=0;exitX=0;exitY=0.5;exitDx=0;exitDy=0;entryX=1;entryY=0.5;entryDx=0;entryDy=0;strokeColor=default;curved=0;" parent="1" source="wOHzCfQpH4CLgoGP7HWh-6" target="6xAQgyJOtl-inS0yBKs7-116" edge="1">
          <mxGeometry width="50" height="50" relative="1" as="geometry">
            <mxPoint x="30.5" y="581.5699999999999" as="sourcePoint" />
            <mxPoint x="131" y="581.5699999999999" as="targetPoint" />
          </mxGeometry>
        </mxCell>
        <mxCell id="6xAQgyJOtl-inS0yBKs7-140" value="" style="endArrow=classic;html=1;rounded=0;exitX=1;exitY=0.5;exitDx=0;exitDy=0;entryX=0;entryY=0.5;entryDx=0;entryDy=0;strokeColor=default;curved=0;" parent="1" source="wOHzCfQpH4CLgoGP7HWh-2" target="6xAQgyJOtl-inS0yBKs7-116" edge="1">
          <mxGeometry width="50" height="50" relative="1" as="geometry">
            <mxPoint x="-92" y="511.13000000000005" as="sourcePoint" />
            <mxPoint x="-170" y="511.13000000000005" as="targetPoint" />
          </mxGeometry>
        </mxCell>
        <mxCell id="6xAQgyJOtl-inS0yBKs7-141" value="contient" style="rhombus;whiteSpace=wrap;html=1;" parent="1" vertex="1">
          <mxGeometry x="-69.25" y="270" width="99.5" height="65" as="geometry" />
        </mxCell>
        <mxCell id="6xAQgyJOtl-inS0yBKs7-142" value="nécessite" style="rhombus;whiteSpace=wrap;html=1;" parent="1" vertex="1">
          <mxGeometry x="150.25" y="585" width="99.5" height="65" as="geometry" />
        </mxCell>
        <mxCell id="6xAQgyJOtl-inS0yBKs7-143" value="" style="endArrow=none;html=1;rounded=0;exitX=0.5;exitY=0;exitDx=0;exitDy=0;entryX=0.5;entryY=1;entryDx=0;entryDy=0;" parent="1" source="6xAQgyJOtl-inS0yBKs7-116" target="6xAQgyJOtl-inS0yBKs7-141" edge="1">
          <mxGeometry width="50" height="50" relative="1" as="geometry">
            <mxPoint x="-70" y="240" as="sourcePoint" />
            <mxPoint x="-110" y="330" as="targetPoint" />
          </mxGeometry>
        </mxCell>
        <mxCell id="6xAQgyJOtl-inS0yBKs7-144" value="" style="endArrow=none;html=1;rounded=0;exitX=0.5;exitY=1;exitDx=0;exitDy=0;entryX=0.5;entryY=0;entryDx=0;entryDy=0;" parent="1" source="6xAQgyJOtl-inS0yBKs7-142" target="6xAQgyJOtl-inS0yBKs7-69" edge="1">
          <mxGeometry width="50" height="50" relative="1" as="geometry">
            <mxPoint x="78.00000000000023" y="746" as="sourcePoint" />
            <mxPoint x="-91.24999999999977" y="259.5" as="targetPoint" />
          </mxGeometry>
        </mxCell>
        <mxCell id="6xAQgyJOtl-inS0yBKs7-145" value="" style="endArrow=none;html=1;rounded=0;exitX=0.5;exitY=0;exitDx=0;exitDy=0;entryX=0.5;entryY=1;entryDx=0;entryDy=0;" parent="1" source="6xAQgyJOtl-inS0yBKs7-141" target="wOHzCfQpH4CLgoGP7HWh-3" edge="1">
          <mxGeometry width="50" height="50" relative="1" as="geometry">
            <mxPoint x="-14.129999999999995" y="274.5" as="sourcePoint" />
            <mxPoint x="-83.13" y="185.5" as="targetPoint" />
          </mxGeometry>
        </mxCell>
        <mxCell id="6xAQgyJOtl-inS0yBKs7-147" value="" style="endArrow=none;html=1;rounded=0;entryX=0;entryY=0;entryDx=0;entryDy=0;exitX=1;exitY=1;exitDx=0;exitDy=0;" parent="1" source="6xAQgyJOtl-inS0yBKs7-116" target="6xAQgyJOtl-inS0yBKs7-142" edge="1">
          <mxGeometry width="50" height="50" relative="1" as="geometry">
            <mxPoint x="-220" y="390" as="sourcePoint" />
            <mxPoint x="-170" y="340" as="targetPoint" />
          </mxGeometry>
        </mxCell>
        <mxCell id="6xAQgyJOtl-inS0yBKs7-148" value="" style="endArrow=none;html=1;rounded=0;exitX=0.327;exitY=0.021;exitDx=0;exitDy=0;exitPerimeter=0;" parent="1" source="6xAQgyJOtl-inS0yBKs7-116" edge="1">
          <mxGeometry width="50" height="50" relative="1" as="geometry">
            <mxPoint x="-59.5" y="470" as="sourcePoint" />
            <mxPoint x="-60" y="414" as="targetPoint" />
          </mxGeometry>
        </mxCell>
        <mxCell id="6xAQgyJOtl-inS0yBKs7-149" value="" style="endArrow=none;html=1;rounded=0;entryX=1;entryY=1;entryDx=0;entryDy=0;exitX=0;exitY=0;exitDx=0;exitDy=0;" parent="1" source="6xAQgyJOtl-inS0yBKs7-151" target="wOHzCfQpH4CLgoGP7HWh-4" edge="1">
          <mxGeometry width="50" height="50" relative="1" as="geometry">
            <mxPoint x="-193" y="290" as="sourcePoint" />
            <mxPoint x="-140" y="310" as="targetPoint" />
          </mxGeometry>
        </mxCell>
        <mxCell id="6xAQgyJOtl-inS0yBKs7-151" value="sponsor" style="rhombus;whiteSpace=wrap;html=1;" parent="1" vertex="1">
          <mxGeometry x="-211.5" y="262" width="99.5" height="65" as="geometry" />
        </mxCell>
        <mxCell id="6xAQgyJOtl-inS0yBKs7-152" value="produit" style="rhombus;whiteSpace=wrap;html=1;" parent="1" vertex="1">
          <mxGeometry x="-331.5" y="327" width="99.5" height="65" as="geometry" />
        </mxCell>
        <mxCell id="6xAQgyJOtl-inS0yBKs7-153" value="" style="endArrow=none;html=1;rounded=0;entryX=0.75;entryY=1;entryDx=0;entryDy=0;exitX=0.5;exitY=0;exitDx=0;exitDy=0;" parent="1" source="6xAQgyJOtl-inS0yBKs7-152" target="wOHzCfQpH4CLgoGP7HWh-4" edge="1">
          <mxGeometry width="50" height="50" relative="1" as="geometry">
            <mxPoint x="-271" y="324" as="sourcePoint" />
            <mxPoint x="-340" y="255" as="targetPoint" />
          </mxGeometry>
        </mxCell>
        <mxCell id="6xAQgyJOtl-inS0yBKs7-154" value="" style="endArrow=none;html=1;rounded=0;entryX=0.5;entryY=1;entryDx=0;entryDy=0;exitX=0;exitY=0;exitDx=0;exitDy=0;" parent="1" source="6xAQgyJOtl-inS0yBKs7-116" target="6xAQgyJOtl-inS0yBKs7-151" edge="1">
          <mxGeometry width="50" height="50" relative="1" as="geometry">
            <mxPoint x="-130" y="420" as="sourcePoint" />
            <mxPoint x="-80" y="370" as="targetPoint" />
          </mxGeometry>
        </mxCell>
        <mxCell id="6xAQgyJOtl-inS0yBKs7-155" value="" style="endArrow=none;html=1;rounded=0;entryX=1;entryY=1;entryDx=0;entryDy=0;exitX=0;exitY=0.25;exitDx=0;exitDy=0;" parent="1" source="6xAQgyJOtl-inS0yBKs7-116" target="6xAQgyJOtl-inS0yBKs7-152" edge="1">
          <mxGeometry width="50" height="50" relative="1" as="geometry">
            <mxPoint x="-110" y="482.5" as="sourcePoint" />
            <mxPoint x="-191" y="375.5" as="targetPoint" />
          </mxGeometry>
        </mxCell>
        <mxCell id="6xAQgyJOtl-inS0yBKs7-156" value="" style="endArrow=none;html=1;rounded=0;exitX=1;exitY=0;exitDx=0;exitDy=0;" parent="1" source="6xAQgyJOtl-inS0yBKs7-151" edge="1">
          <mxGeometry width="50" height="50" relative="1" as="geometry">
            <mxPoint x="-141.5" y="334.5" as="sourcePoint" />
            <mxPoint x="-130.5" y="264.5" as="targetPoint" />
          </mxGeometry>
        </mxCell>
        <mxCell id="6xAQgyJOtl-inS0yBKs7-162" value="" style="endArrow=none;html=1;rounded=0;entryX=0.5;entryY=1;entryDx=0;entryDy=0;" parent="1" target="ZD1sIFu8PZ-on4BOZHfQ-32" edge="1">
          <mxGeometry width="50" height="50" relative="1" as="geometry">
            <mxPoint x="-19" y="812" as="sourcePoint" />
            <mxPoint x="0.25" y="856" as="targetPoint" />
          </mxGeometry>
        </mxCell>
        <mxCell id="6xAQgyJOtl-inS0yBKs7-163" value="Fonction" style="text;html=1;align=center;verticalAlign=middle;whiteSpace=wrap;rounded=0;fontSize=8;" parent="1" vertex="1">
          <mxGeometry x="-49.5" y="800" width="60" height="30" as="geometry" />
        </mxCell>
        <mxCell id="eIMeyo4ojm27M3s6XDSf-10" value="1" style="text;html=1;align=center;verticalAlign=middle;whiteSpace=wrap;rounded=0;fontSize=8;" parent="1" vertex="1">
          <mxGeometry x="-19" y="160" width="20" height="20" as="geometry" />
        </mxCell>
        <mxCell id="eIMeyo4ojm27M3s6XDSf-11" value="1:n" style="text;html=1;align=center;verticalAlign=middle;whiteSpace=wrap;rounded=0;fontSize=8;" parent="1" vertex="1">
          <mxGeometry x="-20" y="449.5" width="20" height="20" as="geometry" />
        </mxCell>
        <mxCell id="eIMeyo4ojm27M3s6XDSf-12" value="0:n" style="text;html=1;align=center;verticalAlign=middle;whiteSpace=wrap;rounded=0;fontSize=8;" parent="1" vertex="1">
          <mxGeometry x="-302" y="240" width="20" height="20" as="geometry" />
        </mxCell>
        <mxCell id="eIMeyo4ojm27M3s6XDSf-13" value="0:n" style="text;html=1;align=center;verticalAlign=middle;whiteSpace=wrap;rounded=0;fontSize=8;" parent="1" vertex="1">
          <mxGeometry x="-252" y="224.5" width="20" height="20" as="geometry" />
        </mxCell>
        <mxCell id="eIMeyo4ojm27M3s6XDSf-14" value="1:n" style="text;html=1;align=center;verticalAlign=middle;whiteSpace=wrap;rounded=0;fontSize=8;" parent="1" vertex="1">
          <mxGeometry x="-132" y="461" width="20" height="20" as="geometry" />
        </mxCell>
        <mxCell id="eIMeyo4ojm27M3s6XDSf-15" value="0:n" style="text;html=1;align=center;verticalAlign=middle;whiteSpace=wrap;rounded=0;fontSize=8;" parent="1" vertex="1">
          <mxGeometry x="-129.5" y="410" width="20" height="20" as="geometry" />
        </mxCell>
        <mxCell id="ZD1sIFu8PZ-on4BOZHfQ-1" value="Genre" style="text;strokeColor=none;fillColor=none;align=center;verticalAlign=middle;spacingLeft=4;spacingRight=4;overflow=hidden;points=[[0,0.5],[1,0.5]];portConstraint=eastwest;rotatable=0;whiteSpace=wrap;html=1;fontSize=8;" vertex="1" parent="1">
          <mxGeometry x="-14.5" y="392" width="58" height="30" as="geometry" />
        </mxCell>
        <mxCell id="ZD1sIFu8PZ-on4BOZHfQ-2" value="" style="endArrow=none;html=1;rounded=0;exitX=0.75;exitY=0;exitDx=0;exitDy=0;" edge="1" parent="1">
          <mxGeometry width="50" height="50" relative="1" as="geometry">
            <mxPoint x="0.5" y="468" as="sourcePoint" />
            <mxPoint x="15" y="415" as="targetPoint" />
          </mxGeometry>
        </mxCell>
        <mxCell id="ZD1sIFu8PZ-on4BOZHfQ-3" value="Num_civique" style="text;html=1;align=center;verticalAlign=middle;whiteSpace=wrap;rounded=0;fontSize=8;" vertex="1" parent="1">
          <mxGeometry x="-302" y="565" width="60" height="30" as="geometry" />
        </mxCell>
        <mxCell id="ZD1sIFu8PZ-on4BOZHfQ-4" value="" style="endArrow=none;html=1;rounded=0;" edge="1" parent="1">
          <mxGeometry width="50" height="50" relative="1" as="geometry">
            <mxPoint x="-248" y="625" as="sourcePoint" />
            <mxPoint x="-272" y="588" as="targetPoint" />
          </mxGeometry>
        </mxCell>
        <mxCell id="ZD1sIFu8PZ-on4BOZHfQ-5" value="Code_postal" style="text;html=1;align=center;verticalAlign=middle;whiteSpace=wrap;rounded=0;fontSize=8;" vertex="1" parent="1">
          <mxGeometry x="-252" y="555" width="60" height="30" as="geometry" />
        </mxCell>
        <mxCell id="ZD1sIFu8PZ-on4BOZHfQ-6" value="" style="endArrow=none;html=1;rounded=0;exitX=0.303;exitY=1.004;exitDx=0;exitDy=0;exitPerimeter=0;" edge="1" parent="1">
          <mxGeometry width="50" height="50" relative="1" as="geometry">
            <mxPoint x="-241.79" y="625" as="sourcePoint" />
            <mxPoint x="-235" y="575" as="targetPoint" />
          </mxGeometry>
        </mxCell>
        <mxCell id="ZD1sIFu8PZ-on4BOZHfQ-7" value="Habitudes" style="rounded=0;whiteSpace=wrap;html=1;" vertex="1" parent="1">
          <mxGeometry x="-720" y="615" width="120" height="60" as="geometry" />
        </mxCell>
        <mxCell id="ZD1sIFu8PZ-on4BOZHfQ-8" value="Sport" style="rounded=0;whiteSpace=wrap;html=1;" vertex="1" parent="1">
          <mxGeometry x="-720" y="705" width="120" height="60" as="geometry" />
        </mxCell>
        <mxCell id="ZD1sIFu8PZ-on4BOZHfQ-10" value="Pratique" style="rhombus;whiteSpace=wrap;html=1;" vertex="1" parent="1">
          <mxGeometry x="-529.5" y="702.5" width="99.5" height="65" as="geometry" />
        </mxCell>
        <mxCell id="ZD1sIFu8PZ-on4BOZHfQ-11" value="Pratique" style="rhombus;whiteSpace=wrap;html=1;" vertex="1" parent="1">
          <mxGeometry x="-529.5" y="613" width="99.5" height="65" as="geometry" />
        </mxCell>
        <mxCell id="ZD1sIFu8PZ-on4BOZHfQ-12" value="Nom" style="text;html=1;align=center;verticalAlign=middle;whiteSpace=wrap;rounded=0;fontSize=8;" vertex="1" parent="1">
          <mxGeometry x="-793" y="630" width="60" height="30" as="geometry" />
        </mxCell>
        <mxCell id="ZD1sIFu8PZ-on4BOZHfQ-13" value="Nom" style="text;html=1;align=center;verticalAlign=middle;whiteSpace=wrap;rounded=0;fontSize=8;" vertex="1" parent="1">
          <mxGeometry x="-792" y="717" width="60" height="30" as="geometry" />
        </mxCell>
        <mxCell id="ZD1sIFu8PZ-on4BOZHfQ-14" value="" style="endArrow=none;html=1;rounded=0;entryX=0;entryY=0.5;entryDx=0;entryDy=0;" edge="1" parent="1" target="ZD1sIFu8PZ-on4BOZHfQ-7">
          <mxGeometry width="50" height="50" relative="1" as="geometry">
            <mxPoint x="-753" y="647" as="sourcePoint" />
            <mxPoint x="-720" y="643" as="targetPoint" />
          </mxGeometry>
        </mxCell>
        <mxCell id="ZD1sIFu8PZ-on4BOZHfQ-15" value="" style="endArrow=none;html=1;rounded=0;entryX=0;entryY=0.5;entryDx=0;entryDy=0;" edge="1" parent="1" target="ZD1sIFu8PZ-on4BOZHfQ-8">
          <mxGeometry width="50" height="50" relative="1" as="geometry">
            <mxPoint x="-752" y="734" as="sourcePoint" />
            <mxPoint x="-720" y="736.5" as="targetPoint" />
          </mxGeometry>
        </mxCell>
        <mxCell id="ZD1sIFu8PZ-on4BOZHfQ-16" value="" style="endArrow=none;html=1;rounded=0;entryX=0;entryY=0.5;entryDx=0;entryDy=0;exitX=1;exitY=0.5;exitDx=0;exitDy=0;" edge="1" parent="1" source="ZD1sIFu8PZ-on4BOZHfQ-8" target="ZD1sIFu8PZ-on4BOZHfQ-10">
          <mxGeometry width="50" height="50" relative="1" as="geometry">
            <mxPoint x="-590" y="737" as="sourcePoint" />
            <mxPoint x="-558" y="738" as="targetPoint" />
          </mxGeometry>
        </mxCell>
        <mxCell id="ZD1sIFu8PZ-on4BOZHfQ-17" value="" style="endArrow=none;html=1;rounded=0;entryX=0;entryY=0.5;entryDx=0;entryDy=0;exitX=1;exitY=0.5;exitDx=0;exitDy=0;" edge="1" parent="1" source="ZD1sIFu8PZ-on4BOZHfQ-7" target="ZD1sIFu8PZ-on4BOZHfQ-11">
          <mxGeometry width="50" height="50" relative="1" as="geometry">
            <mxPoint x="-600" y="643" as="sourcePoint" />
            <mxPoint x="-550" y="646" as="targetPoint" />
          </mxGeometry>
        </mxCell>
        <mxCell id="ZD1sIFu8PZ-on4BOZHfQ-18" value="" style="endArrow=none;html=1;rounded=0;entryX=0;entryY=0.5;entryDx=0;entryDy=0;exitX=1;exitY=0.5;exitDx=0;exitDy=0;" edge="1" parent="1" source="ZD1sIFu8PZ-on4BOZHfQ-11" target="wOHzCfQpH4CLgoGP7HWh-10">
          <mxGeometry width="50" height="50" relative="1" as="geometry">
            <mxPoint x="-370" y="720" as="sourcePoint" />
            <mxPoint x="-320" y="670" as="targetPoint" />
          </mxGeometry>
        </mxCell>
        <mxCell id="ZD1sIFu8PZ-on4BOZHfQ-19" value="" style="endArrow=none;html=1;rounded=0;entryX=0;entryY=0.75;entryDx=0;entryDy=0;exitX=1;exitY=0.5;exitDx=0;exitDy=0;" edge="1" parent="1" source="ZD1sIFu8PZ-on4BOZHfQ-10" target="wOHzCfQpH4CLgoGP7HWh-10">
          <mxGeometry width="50" height="50" relative="1" as="geometry">
            <mxPoint x="-460" y="667.5" as="sourcePoint" />
            <mxPoint x="-312" y="704.5" as="targetPoint" />
          </mxGeometry>
        </mxCell>
        <mxCell id="ZD1sIFu8PZ-on4BOZHfQ-20" value="0:n" style="text;html=1;align=center;verticalAlign=middle;whiteSpace=wrap;rounded=0;fontSize=8;" vertex="1" parent="1">
          <mxGeometry x="-331.5" y="699" width="20" height="20" as="geometry" />
        </mxCell>
        <mxCell id="ZD1sIFu8PZ-on4BOZHfQ-21" value="0:n" style="text;html=1;align=center;verticalAlign=middle;whiteSpace=wrap;rounded=0;fontSize=8;" vertex="1" parent="1">
          <mxGeometry x="-332" y="665" width="20" height="20" as="geometry" />
        </mxCell>
        <mxCell id="ZD1sIFu8PZ-on4BOZHfQ-22" value="0:n" style="text;html=1;align=center;verticalAlign=middle;whiteSpace=wrap;rounded=0;fontSize=8;" vertex="1" parent="1">
          <mxGeometry x="-600" y="715.5" width="20" height="20" as="geometry" />
        </mxCell>
        <mxCell id="ZD1sIFu8PZ-on4BOZHfQ-23" value="0:n" style="text;html=1;align=center;verticalAlign=middle;whiteSpace=wrap;rounded=0;fontSize=8;" vertex="1" parent="1">
          <mxGeometry x="-601" y="627" width="20" height="20" as="geometry" />
        </mxCell>
        <mxCell id="ZD1sIFu8PZ-on4BOZHfQ-25" value="Relation" style="rhombus;whiteSpace=wrap;html=1;" vertex="1" parent="1">
          <mxGeometry x="-301.75" y="800" width="99.5" height="65" as="geometry" />
        </mxCell>
        <mxCell id="ZD1sIFu8PZ-on4BOZHfQ-26" value="" style="endArrow=none;html=1;rounded=0;exitX=0.25;exitY=1;exitDx=0;exitDy=0;entryX=0.205;entryY=0.318;entryDx=0;entryDy=0;entryPerimeter=0;" edge="1" parent="1" source="wOHzCfQpH4CLgoGP7HWh-10" target="ZD1sIFu8PZ-on4BOZHfQ-25">
          <mxGeometry width="50" height="50" relative="1" as="geometry">
            <mxPoint x="-284.56" y="715" as="sourcePoint" />
            <mxPoint x="-279.435" y="816.25" as="targetPoint" />
          </mxGeometry>
        </mxCell>
        <mxCell id="ZD1sIFu8PZ-on4BOZHfQ-27" value="" style="endArrow=none;html=1;rounded=0;exitX=0.75;exitY=1;exitDx=0;exitDy=0;entryX=0.812;entryY=0.328;entryDx=0;entryDy=0;entryPerimeter=0;" edge="1" parent="1" source="wOHzCfQpH4CLgoGP7HWh-10" target="ZD1sIFu8PZ-on4BOZHfQ-25">
          <mxGeometry width="50" height="50" relative="1" as="geometry">
            <mxPoint x="-222" y="715" as="sourcePoint" />
            <mxPoint x="-220" y="820" as="targetPoint" />
          </mxGeometry>
        </mxCell>
        <mxCell id="ZD1sIFu8PZ-on4BOZHfQ-28" value="type" style="text;html=1;align=center;verticalAlign=middle;whiteSpace=wrap;rounded=0;fontSize=8;" vertex="1" parent="1">
          <mxGeometry x="-282" y="880" width="60" height="30" as="geometry" />
        </mxCell>
        <mxCell id="ZD1sIFu8PZ-on4BOZHfQ-29" value="" style="endArrow=none;html=1;rounded=0;entryX=0.5;entryY=1;entryDx=0;entryDy=0;" edge="1" parent="1" target="ZD1sIFu8PZ-on4BOZHfQ-25">
          <mxGeometry width="50" height="50" relative="1" as="geometry">
            <mxPoint x="-252" y="892" as="sourcePoint" />
            <mxPoint x="-240" y="820" as="targetPoint" />
          </mxGeometry>
        </mxCell>
        <mxCell id="ZD1sIFu8PZ-on4BOZHfQ-30" value="0:n" style="text;html=1;align=center;verticalAlign=middle;whiteSpace=wrap;rounded=0;fontSize=8;" vertex="1" parent="1">
          <mxGeometry x="-301.75" y="737.5" width="20" height="20" as="geometry" />
        </mxCell>
        <mxCell id="ZD1sIFu8PZ-on4BOZHfQ-31" value="0:n" style="text;html=1;align=center;verticalAlign=middle;whiteSpace=wrap;rounded=0;fontSize=8;" vertex="1" parent="1">
          <mxGeometry x="-220" y="737.5" width="20" height="20" as="geometry" />
        </mxCell>
        <mxCell id="ZD1sIFu8PZ-on4BOZHfQ-32" value="Participe" style="rhombus;whiteSpace=wrap;html=1;" vertex="1" parent="1">
          <mxGeometry x="-69.25" y="714" width="99.5" height="65" as="geometry" />
        </mxCell>
        <mxCell id="ZD1sIFu8PZ-on4BOZHfQ-33" value="" style="endArrow=none;html=1;rounded=0;entryX=1;entryY=0.5;entryDx=0;entryDy=0;exitX=0;exitY=0.5;exitDx=0;exitDy=0;" edge="1" parent="1" source="ZD1sIFu8PZ-on4BOZHfQ-32" target="wOHzCfQpH4CLgoGP7HWh-10">
          <mxGeometry width="50" height="50" relative="1" as="geometry">
            <mxPoint x="-70" y="740" as="sourcePoint" />
            <mxPoint x="-20" y="690" as="targetPoint" />
          </mxGeometry>
        </mxCell>
        <mxCell id="ZD1sIFu8PZ-on4BOZHfQ-34" value="" style="endArrow=none;html=1;rounded=0;entryX=0;entryY=0.5;entryDx=0;entryDy=0;exitX=1;exitY=0.5;exitDx=0;exitDy=0;" edge="1" parent="1" source="ZD1sIFu8PZ-on4BOZHfQ-32" target="6xAQgyJOtl-inS0yBKs7-69">
          <mxGeometry width="50" height="50" relative="1" as="geometry">
            <mxPoint x="-70" y="740" as="sourcePoint" />
            <mxPoint x="-20" y="690" as="targetPoint" />
          </mxGeometry>
        </mxCell>
        <mxCell id="ZD1sIFu8PZ-on4BOZHfQ-35" value="0:n" style="text;html=1;align=center;verticalAlign=middle;whiteSpace=wrap;rounded=0;fontSize=8;" vertex="1" parent="1">
          <mxGeometry x="-182" y="670" width="20" height="20" as="geometry" />
        </mxCell>
        <mxCell id="ZD1sIFu8PZ-on4BOZHfQ-36" value="1:n" style="text;html=1;align=center;verticalAlign=middle;whiteSpace=wrap;rounded=0;fontSize=8;" vertex="1" parent="1">
          <mxGeometry x="120" y="725" width="20" height="20" as="geometry" />
        </mxCell>
        <mxCell id="ZD1sIFu8PZ-on4BOZHfQ-37" value="&lt;div&gt;1&lt;/div&gt;" style="text;html=1;align=center;verticalAlign=middle;whiteSpace=wrap;rounded=0;fontSize=8;" vertex="1" parent="1">
          <mxGeometry x="200" y="697" width="20" height="20" as="geometry" />
        </mxCell>
        <mxCell id="ZD1sIFu8PZ-on4BOZHfQ-38" value="&lt;div&gt;1&lt;/div&gt;" style="text;html=1;align=center;verticalAlign=middle;whiteSpace=wrap;rounded=0;fontSize=8;" vertex="1" parent="1">
          <mxGeometry x="39" y="535" width="20" height="20" as="geometry" />
        </mxCell>
      </root>
    </mxGraphModel>
  </diagram>
</mxfile>
